<mxfile host="app.diagrams.net" modified="2024-04-28T17:08:09.310Z" agent="Mozilla/5.0 (Windows NT 10.0; Win64; x64) AppleWebKit/537.36 (KHTML, like Gecko) Chrome/123.0.0.0 Safari/537.36" etag="-CIwmhzouKXjhnxOmqN7" version="24.3.1" type="github">
  <diagram id="R2lEEEUBdFMjLlhIrx00" name="Page-1">
    <mxGraphModel dx="1843" dy="796" grid="1" gridSize="10" guides="1" tooltips="1" connect="1" arrows="1" fold="1" page="1" pageScale="1" pageWidth="850" pageHeight="1100" math="0" shadow="0" extFonts="Permanent Marker^https://fonts.googleapis.com/css?family=Permanent+Marker">
      <root>
        <mxCell id="0" />
        <mxCell id="1" parent="0" />
        <mxCell id="a13C5fLpqfONdjdxn8Ig-1" value="" style="endArrow=none;html=1;entryX=1;entryY=0.5;entryDx=0;entryDy=0;exitX=0;exitY=0.5;exitDx=0;exitDy=0;" edge="1" parent="1" source="a13C5fLpqfONdjdxn8Ig-12">
          <mxGeometry width="50" height="50" relative="1" as="geometry">
            <mxPoint x="629" y="820.0033129882813" as="sourcePoint" />
            <mxPoint x="961.5" y="775.0033129882813" as="targetPoint" />
          </mxGeometry>
        </mxCell>
        <mxCell id="a13C5fLpqfONdjdxn8Ig-2" value="" style="endArrow=none;html=1;entryX=0.5;entryY=0;entryDx=0;entryDy=0;exitX=0.5;exitY=1;exitDx=0;exitDy=0;" edge="1" parent="1" source="a13C5fLpqfONdjdxn8Ig-12" target="a13C5fLpqfONdjdxn8Ig-9">
          <mxGeometry width="50" height="50" relative="1" as="geometry">
            <mxPoint x="960" y="905.0033129882813" as="sourcePoint" />
            <mxPoint x="960" y="990.0033129882813" as="targetPoint" />
          </mxGeometry>
        </mxCell>
        <mxCell id="a13C5fLpqfONdjdxn8Ig-3" value="" style="endArrow=none;html=1;exitX=0;exitY=0.5;exitDx=0;exitDy=0;entryX=1;entryY=0.5;entryDx=0;entryDy=0;" edge="1" parent="1">
          <mxGeometry width="50" height="50" relative="1" as="geometry">
            <mxPoint x="841.5" y="775.0033129882813" as="sourcePoint" />
            <mxPoint x="544" y="775.0033129882813" as="targetPoint" />
          </mxGeometry>
        </mxCell>
        <mxCell id="a13C5fLpqfONdjdxn8Ig-4" value="&lt;font style=&quot;font-size: 14px;&quot;&gt;CarMaintenanceHistory&lt;/font&gt;" style="rounded=0;whiteSpace=wrap;html=1;" vertex="1" parent="1">
          <mxGeometry x="830" y="733" width="160" height="85" as="geometry" />
        </mxCell>
        <mxCell id="a13C5fLpqfONdjdxn8Ig-5" value="Give" style="rhombus;whiteSpace=wrap;html=1;fillColor=#f5f5f5;strokeColor=#666666;fontColor=#333333;" vertex="1" parent="1">
          <mxGeometry x="409" y="735.0033129882813" width="160" height="80" as="geometry" />
        </mxCell>
        <mxCell id="a13C5fLpqfONdjdxn8Ig-6" value="" style="endArrow=none;html=1;entryX=0.5;entryY=0;entryDx=0;entryDy=0;exitX=0.5;exitY=1;exitDx=0;exitDy=0;" edge="1" parent="1" source="a13C5fLpqfONdjdxn8Ig-8" target="a13C5fLpqfONdjdxn8Ig-44">
          <mxGeometry width="50" height="50" relative="1" as="geometry">
            <mxPoint x="485" y="1020.0033129882813" as="sourcePoint" />
            <mxPoint x="485" y="1105.0033129882813" as="targetPoint" />
          </mxGeometry>
        </mxCell>
        <mxCell id="a13C5fLpqfONdjdxn8Ig-7" value="" style="endArrow=none;html=1;exitX=1;exitY=0.5;exitDx=0;exitDy=0;entryX=0;entryY=0.5;entryDx=0;entryDy=0;" edge="1" parent="1" source="a13C5fLpqfONdjdxn8Ig-44" target="a13C5fLpqfONdjdxn8Ig-10">
          <mxGeometry width="50" height="50" relative="1" as="geometry">
            <mxPoint x="595" y="1200.0033129882813" as="sourcePoint" />
            <mxPoint x="785" y="1250.0033129882813" as="targetPoint" />
          </mxGeometry>
        </mxCell>
        <mxCell id="a13C5fLpqfONdjdxn8Ig-8" value="&lt;font style=&quot;font-size: 14px;&quot;&gt;CarOwner&lt;/font&gt;" style="rounded=0;whiteSpace=wrap;html=1;" vertex="1" parent="1">
          <mxGeometry x="430" y="960.0033129882813" width="120" height="60" as="geometry" />
        </mxCell>
        <mxCell id="a13C5fLpqfONdjdxn8Ig-9" value="&lt;font style=&quot;font-size: 14px;&quot;&gt;Mechanic&lt;/font&gt;" style="rounded=0;whiteSpace=wrap;html=1;" vertex="1" parent="1">
          <mxGeometry x="1270" y="960.0033129882813" width="120" height="60" as="geometry" />
        </mxCell>
        <mxCell id="a13C5fLpqfONdjdxn8Ig-10" value="&lt;font style=&quot;font-size: 14px;&quot;&gt;ServiceAppointment&lt;/font&gt;" style="rounded=0;whiteSpace=wrap;html=1;" vertex="1" parent="1">
          <mxGeometry x="840" y="1171" width="130" height="60" as="geometry" />
        </mxCell>
        <mxCell id="a13C5fLpqfONdjdxn8Ig-11" value="Follow" style="rhombus;whiteSpace=wrap;html=1;fillColor=#f5f5f5;strokeColor=#666666;fontColor=#333333;" vertex="1" parent="1">
          <mxGeometry x="1275" y="1070.0033129882813" width="110" height="50" as="geometry" />
        </mxCell>
        <mxCell id="a13C5fLpqfONdjdxn8Ig-12" value="See/Update" style="rhombus;whiteSpace=wrap;html=1;fillColor=#f5f5f5;strokeColor=#666666;fontColor=#333333;" vertex="1" parent="1">
          <mxGeometry x="1274" y="750.0033129882813" width="110" height="50" as="geometry" />
        </mxCell>
        <mxCell id="a13C5fLpqfONdjdxn8Ig-13" value="" style="endArrow=none;html=1;entryX=0.5;entryY=0;entryDx=0;entryDy=0;exitX=0.5;exitY=1;exitDx=0;exitDy=0;" edge="1" parent="1" source="a13C5fLpqfONdjdxn8Ig-9" target="a13C5fLpqfONdjdxn8Ig-11">
          <mxGeometry width="50" height="50" relative="1" as="geometry">
            <mxPoint x="1325" y="1020.0033129882813" as="sourcePoint" />
            <mxPoint x="1280" y="1140.0033129882813" as="targetPoint" />
          </mxGeometry>
        </mxCell>
        <mxCell id="a13C5fLpqfONdjdxn8Ig-14" value="name" style="ellipse;whiteSpace=wrap;html=1;fillColor=#f5f5f5;strokeColor=#666666;fontColor=#333333;" vertex="1" parent="1">
          <mxGeometry x="300" y="940.0033129882813" width="60" height="40" as="geometry" />
        </mxCell>
        <mxCell id="a13C5fLpqfONdjdxn8Ig-15" value="address" style="ellipse;whiteSpace=wrap;html=1;fillColor=#f5f5f5;strokeColor=#666666;fontColor=#333333;" vertex="1" parent="1">
          <mxGeometry x="290" y="990.0033129882813" width="60" height="40" as="geometry" />
        </mxCell>
        <mxCell id="a13C5fLpqfONdjdxn8Ig-16" value="password" style="ellipse;whiteSpace=wrap;html=1;fillColor=#f5f5f5;strokeColor=#666666;fontColor=#333333;" vertex="1" parent="1">
          <mxGeometry x="300" y="1040.0033129882813" width="60" height="40" as="geometry" />
        </mxCell>
        <mxCell id="a13C5fLpqfONdjdxn8Ig-17" value="&lt;u&gt;&lt;b&gt;email&lt;/b&gt;&lt;/u&gt;" style="ellipse;whiteSpace=wrap;html=1;fillColor=#f5f5f5;strokeColor=#666666;fontColor=#333333;" vertex="1" parent="1">
          <mxGeometry x="320" y="880.1733129882814" width="60" height="40" as="geometry" />
        </mxCell>
        <mxCell id="a13C5fLpqfONdjdxn8Ig-18" value="" style="endArrow=none;html=1;entryX=1;entryY=0.5;entryDx=0;entryDy=0;exitX=0;exitY=0.5;exitDx=0;exitDy=0;" edge="1" parent="1" source="a13C5fLpqfONdjdxn8Ig-8" target="a13C5fLpqfONdjdxn8Ig-14">
          <mxGeometry width="50" height="50" relative="1" as="geometry">
            <mxPoint x="440" y="1000.0033129882813" as="sourcePoint" />
            <mxPoint x="411.21320343559637" y="944.1454486120124" as="targetPoint" />
          </mxGeometry>
        </mxCell>
        <mxCell id="a13C5fLpqfONdjdxn8Ig-19" value="" style="endArrow=none;html=1;entryX=1;entryY=0.5;entryDx=0;entryDy=0;exitX=0;exitY=0.5;exitDx=0;exitDy=0;" edge="1" parent="1" source="a13C5fLpqfONdjdxn8Ig-8" target="a13C5fLpqfONdjdxn8Ig-15">
          <mxGeometry width="50" height="50" relative="1" as="geometry">
            <mxPoint x="450" y="1010.0033129882813" as="sourcePoint" />
            <mxPoint x="421.21320343559637" y="954.1454486120124" as="targetPoint" />
          </mxGeometry>
        </mxCell>
        <mxCell id="a13C5fLpqfONdjdxn8Ig-20" value="" style="endArrow=none;html=1;entryX=1;entryY=0.5;entryDx=0;entryDy=0;exitX=0;exitY=0.5;exitDx=0;exitDy=0;" edge="1" parent="1" source="a13C5fLpqfONdjdxn8Ig-8" target="a13C5fLpqfONdjdxn8Ig-16">
          <mxGeometry width="50" height="50" relative="1" as="geometry">
            <mxPoint x="460" y="1020.0033129882813" as="sourcePoint" />
            <mxPoint x="431.21320343559637" y="964.1454486120124" as="targetPoint" />
          </mxGeometry>
        </mxCell>
        <mxCell id="a13C5fLpqfONdjdxn8Ig-21" value="" style="endArrow=none;html=1;entryX=0.667;entryY=0.95;entryDx=0;entryDy=0;exitX=0;exitY=0.5;exitDx=0;exitDy=0;entryPerimeter=0;" edge="1" parent="1" source="a13C5fLpqfONdjdxn8Ig-8" target="a13C5fLpqfONdjdxn8Ig-17">
          <mxGeometry width="50" height="50" relative="1" as="geometry">
            <mxPoint x="470" y="1030.0033129882813" as="sourcePoint" />
            <mxPoint x="441.21320343559637" y="974.1454486120124" as="targetPoint" />
          </mxGeometry>
        </mxCell>
        <mxCell id="a13C5fLpqfONdjdxn8Ig-22" value="date" style="ellipse;whiteSpace=wrap;html=1;fillColor=#f5f5f5;strokeColor=#666666;fontColor=#333333;" vertex="1" parent="1">
          <mxGeometry x="800" y="1290.0033129882813" width="60" height="40" as="geometry" />
        </mxCell>
        <mxCell id="a13C5fLpqfONdjdxn8Ig-23" value="start time" style="ellipse;whiteSpace=wrap;html=1;fillColor=#f5f5f5;strokeColor=#666666;fontColor=#333333;" vertex="1" parent="1">
          <mxGeometry x="867.5" y="1320.0033129882813" width="60" height="40" as="geometry" />
        </mxCell>
        <mxCell id="a13C5fLpqfONdjdxn8Ig-24" value="&lt;u&gt;&lt;b&gt;id&lt;/b&gt;&lt;/u&gt;" style="ellipse;whiteSpace=wrap;html=1;fillColor=#f5f5f5;strokeColor=#666666;fontColor=#333333;" vertex="1" parent="1">
          <mxGeometry x="937.5" y="1290.0033129882813" width="60" height="40" as="geometry" />
        </mxCell>
        <mxCell id="a13C5fLpqfONdjdxn8Ig-25" value="" style="endArrow=none;html=1;entryX=1;entryY=0;entryDx=0;entryDy=0;exitX=0.5;exitY=1;exitDx=0;exitDy=0;" edge="1" parent="1" source="a13C5fLpqfONdjdxn8Ig-10" target="a13C5fLpqfONdjdxn8Ig-22">
          <mxGeometry width="50" height="50" relative="1" as="geometry">
            <mxPoint x="650" y="1070.0033129882813" as="sourcePoint" />
            <mxPoint x="621.2132034355964" y="1165.8611773645503" as="targetPoint" />
          </mxGeometry>
        </mxCell>
        <mxCell id="a13C5fLpqfONdjdxn8Ig-26" value="" style="endArrow=none;html=1;entryX=0.5;entryY=0;entryDx=0;entryDy=0;exitX=0.5;exitY=1;exitDx=0;exitDy=0;" edge="1" parent="1" source="a13C5fLpqfONdjdxn8Ig-10" target="a13C5fLpqfONdjdxn8Ig-23">
          <mxGeometry width="50" height="50" relative="1" as="geometry">
            <mxPoint x="910" y="1240.0033129882813" as="sourcePoint" />
            <mxPoint x="841.2132034355964" y="1285.8611773645503" as="targetPoint" />
          </mxGeometry>
        </mxCell>
        <mxCell id="a13C5fLpqfONdjdxn8Ig-27" value="" style="endArrow=none;html=1;exitX=0.5;exitY=1;exitDx=0;exitDy=0;" edge="1" parent="1" source="a13C5fLpqfONdjdxn8Ig-10" target="a13C5fLpqfONdjdxn8Ig-24">
          <mxGeometry width="50" height="50" relative="1" as="geometry">
            <mxPoint x="930" y="1260.0033129882813" as="sourcePoint" />
            <mxPoint x="861.2132034355964" y="1305.8611773645503" as="targetPoint" />
          </mxGeometry>
        </mxCell>
        <mxCell id="a13C5fLpqfONdjdxn8Ig-28" value="gender" style="ellipse;whiteSpace=wrap;html=1;fillColor=#f5f5f5;strokeColor=#666666;fontColor=#333333;" vertex="1" parent="1">
          <mxGeometry x="370" y="840.1733129882814" width="60" height="40" as="geometry" />
        </mxCell>
        <mxCell id="a13C5fLpqfONdjdxn8Ig-29" value="conditions" style="ellipse;whiteSpace=wrap;html=1;fillColor=#f5f5f5;strokeColor=#666666;fontColor=#333333;" vertex="1" parent="1">
          <mxGeometry x="890" y="630" width="60" height="40" as="geometry" />
        </mxCell>
        <mxCell id="a13C5fLpqfONdjdxn8Ig-30" value="repairs" style="ellipse;whiteSpace=wrap;html=1;fillColor=#f5f5f5;strokeColor=#666666;fontColor=#333333;" vertex="1" parent="1">
          <mxGeometry x="750" y="693.0033129882813" width="60" height="40" as="geometry" />
        </mxCell>
        <mxCell id="a13C5fLpqfONdjdxn8Ig-31" value="parts_replaced" style="ellipse;whiteSpace=wrap;html=1;fillColor=#f5f5f5;strokeColor=#666666;fontColor=#333333;" vertex="1" parent="1">
          <mxGeometry x="785" y="630" width="90" height="60" as="geometry" />
        </mxCell>
        <mxCell id="a13C5fLpqfONdjdxn8Ig-32" value="gender" style="ellipse;whiteSpace=wrap;html=1;fillColor=#f5f5f5;strokeColor=#666666;fontColor=#333333;" vertex="1" parent="1">
          <mxGeometry x="1490" y="880.1700000000001" width="60" height="40" as="geometry" />
        </mxCell>
        <mxCell id="a13C5fLpqfONdjdxn8Ig-33" value="password" style="ellipse;whiteSpace=wrap;html=1;fillColor=#f5f5f5;strokeColor=#666666;fontColor=#333333;" vertex="1" parent="1">
          <mxGeometry x="1370" y="830" width="60" height="40" as="geometry" />
        </mxCell>
        <mxCell id="a13C5fLpqfONdjdxn8Ig-34" value="&lt;u&gt;&lt;b&gt;email&lt;/b&gt;&lt;/u&gt;" style="ellipse;whiteSpace=wrap;html=1;fillColor=#f5f5f5;strokeColor=#666666;fontColor=#333333;" vertex="1" parent="1">
          <mxGeometry x="1430" y="850" width="60" height="40" as="geometry" />
        </mxCell>
        <mxCell id="a13C5fLpqfONdjdxn8Ig-35" value="name" style="ellipse;whiteSpace=wrap;html=1;fillColor=#f5f5f5;strokeColor=#666666;fontColor=#333333;" vertex="1" parent="1">
          <mxGeometry x="1540" y="940.0033129882813" width="60" height="40" as="geometry" />
        </mxCell>
        <mxCell id="a13C5fLpqfONdjdxn8Ig-36" value="" style="endArrow=none;html=1;exitX=0.5;exitY=0;exitDx=0;exitDy=0;" edge="1" parent="1" source="a13C5fLpqfONdjdxn8Ig-4" target="a13C5fLpqfONdjdxn8Ig-29">
          <mxGeometry width="50" height="50" relative="1" as="geometry">
            <mxPoint x="900" y="730.0033129882813" as="sourcePoint" />
            <mxPoint x="832.5" y="700.1700000000001" as="targetPoint" />
          </mxGeometry>
        </mxCell>
        <mxCell id="a13C5fLpqfONdjdxn8Ig-37" value="" style="endArrow=none;html=1;entryX=1;entryY=1;entryDx=0;entryDy=0;exitX=0.5;exitY=0;exitDx=0;exitDy=0;" edge="1" parent="1" source="a13C5fLpqfONdjdxn8Ig-4" target="a13C5fLpqfONdjdxn8Ig-30">
          <mxGeometry width="50" height="50" relative="1" as="geometry">
            <mxPoint x="903" y="730.0033129882813" as="sourcePoint" />
            <mxPoint x="842.5" y="710.1700000000001" as="targetPoint" />
          </mxGeometry>
        </mxCell>
        <mxCell id="a13C5fLpqfONdjdxn8Ig-38" value="" style="endArrow=none;html=1;entryX=1;entryY=1;entryDx=0;entryDy=0;exitX=0.5;exitY=0;exitDx=0;exitDy=0;" edge="1" parent="1" source="a13C5fLpqfONdjdxn8Ig-4" target="a13C5fLpqfONdjdxn8Ig-31">
          <mxGeometry width="50" height="50" relative="1" as="geometry">
            <mxPoint x="903" y="695.0033129882813" as="sourcePoint" />
            <mxPoint x="932.5" y="590.0033129882813" as="targetPoint" />
          </mxGeometry>
        </mxCell>
        <mxCell id="a13C5fLpqfONdjdxn8Ig-39" value="" style="endArrow=none;html=1;entryX=1;entryY=0.75;entryDx=0;entryDy=0;exitX=0.5;exitY=1;exitDx=0;exitDy=0;" edge="1" parent="1" source="a13C5fLpqfONdjdxn8Ig-33" target="a13C5fLpqfONdjdxn8Ig-9">
          <mxGeometry width="50" height="50" relative="1" as="geometry">
            <mxPoint x="1090" y="895.0033129882813" as="sourcePoint" />
            <mxPoint x="1158.7867965644036" y="869.3121356237309" as="targetPoint" />
          </mxGeometry>
        </mxCell>
        <mxCell id="a13C5fLpqfONdjdxn8Ig-40" value="status" style="ellipse;whiteSpace=wrap;html=1;fillColor=#f5f5f5;strokeColor=#666666;fontColor=#333333;" vertex="1" parent="1">
          <mxGeometry x="982.5" y="1240.0033129882813" width="60" height="40" as="geometry" />
        </mxCell>
        <mxCell id="a13C5fLpqfONdjdxn8Ig-41" value="" style="endArrow=none;html=1;exitX=0.5;exitY=1;exitDx=0;exitDy=0;entryX=0;entryY=0.5;entryDx=0;entryDy=0;" edge="1" parent="1" source="a13C5fLpqfONdjdxn8Ig-10">
          <mxGeometry width="50" height="50" relative="1" as="geometry">
            <mxPoint x="910" y="1240.0033129882813" as="sourcePoint" />
            <mxPoint x="985" y="1252.5033129882813" as="targetPoint" />
          </mxGeometry>
        </mxCell>
        <mxCell id="a13C5fLpqfONdjdxn8Ig-42" value="Maintenance Assignment" style="rhombus;whiteSpace=wrap;html=1;fillColor=#f5f5f5;strokeColor=#666666;fontColor=#333333;" vertex="1" parent="1">
          <mxGeometry x="950" y="1050" width="175" height="90" as="geometry" />
        </mxCell>
        <mxCell id="a13C5fLpqfONdjdxn8Ig-43" value="" style="endArrow=none;html=1;entryX=0;entryY=0.5;entryDx=0;entryDy=0;exitX=1;exitY=0.5;exitDx=0;exitDy=0;" edge="1" parent="1" source="a13C5fLpqfONdjdxn8Ig-42" target="a13C5fLpqfONdjdxn8Ig-9">
          <mxGeometry width="50" height="50" relative="1" as="geometry">
            <mxPoint x="1100" y="1120.0033129882813" as="sourcePoint" />
            <mxPoint x="960.0000000000002" y="1000.0033129882813" as="targetPoint" />
          </mxGeometry>
        </mxCell>
        <mxCell id="a13C5fLpqfONdjdxn8Ig-44" value="attend" style="rhombus;whiteSpace=wrap;html=1;fillColor=#f5f5f5;strokeColor=#666666;fontColor=#333333;" vertex="1" parent="1">
          <mxGeometry x="435" y="1175.0033129882813" width="110" height="50" as="geometry" />
        </mxCell>
        <mxCell id="a13C5fLpqfONdjdxn8Ig-45" value="&lt;font style=&quot;font-size: 14px;&quot;&gt;ServiceSchedule&lt;/font&gt;" style="rounded=0;whiteSpace=wrap;html=1;" vertex="1" parent="1">
          <mxGeometry x="1270" y="1170.0033129882813" width="120" height="60" as="geometry" />
        </mxCell>
        <mxCell id="a13C5fLpqfONdjdxn8Ig-46" value="" style="endArrow=none;html=1;entryX=0.5;entryY=0;entryDx=0;entryDy=0;exitX=0.5;exitY=1;exitDx=0;exitDy=0;" edge="1" parent="1" source="a13C5fLpqfONdjdxn8Ig-11" target="a13C5fLpqfONdjdxn8Ig-45">
          <mxGeometry width="50" height="50" relative="1" as="geometry">
            <mxPoint x="1324" y="1140.0033129882813" as="sourcePoint" />
            <mxPoint x="1324" y="1210.0033129882813" as="targetPoint" />
          </mxGeometry>
        </mxCell>
        <mxCell id="a13C5fLpqfONdjdxn8Ig-47" value="Correspond" style="rhombus;whiteSpace=wrap;html=1;fillColor=#f5f5f5;strokeColor=#666666;fontColor=#333333;" vertex="1" parent="1">
          <mxGeometry x="1060" y="1175.0033129882813" width="110" height="50" as="geometry" />
        </mxCell>
        <mxCell id="a13C5fLpqfONdjdxn8Ig-48" value="" style="endArrow=none;html=1;exitX=1;exitY=0.5;exitDx=0;exitDy=0;" edge="1" parent="1" source="a13C5fLpqfONdjdxn8Ig-10" target="a13C5fLpqfONdjdxn8Ig-47">
          <mxGeometry width="50" height="50" relative="1" as="geometry">
            <mxPoint x="955" y="1199.0033129882813" as="sourcePoint" />
            <mxPoint x="1050" y="1199.0033129882813" as="targetPoint" />
          </mxGeometry>
        </mxCell>
        <mxCell id="a13C5fLpqfONdjdxn8Ig-49" value="" style="endArrow=none;html=1;exitX=1;exitY=0.5;exitDx=0;exitDy=0;entryX=0;entryY=0.5;entryDx=0;entryDy=0;" edge="1" parent="1" source="a13C5fLpqfONdjdxn8Ig-47" target="a13C5fLpqfONdjdxn8Ig-45">
          <mxGeometry width="50" height="50" relative="1" as="geometry">
            <mxPoint x="935" y="1210.0033129882813" as="sourcePoint" />
            <mxPoint x="1070" y="1210.0033129882813" as="targetPoint" />
          </mxGeometry>
        </mxCell>
        <mxCell id="a13C5fLpqfONdjdxn8Ig-50" value="" style="endArrow=none;html=1;entryX=0.5;entryY=0;entryDx=0;entryDy=0;exitX=0;exitY=0.5;exitDx=0;exitDy=0;" edge="1" parent="1" source="a13C5fLpqfONdjdxn8Ig-42" target="a13C5fLpqfONdjdxn8Ig-10">
          <mxGeometry width="50" height="50" relative="1" as="geometry">
            <mxPoint x="900" y="1030.0033129882813" as="sourcePoint" />
            <mxPoint x="500" y="1185.0033129882813" as="targetPoint" />
          </mxGeometry>
        </mxCell>
        <mxCell id="a13C5fLpqfONdjdxn8Ig-51" value="" style="endArrow=none;html=1;entryX=1;entryY=0.75;entryDx=0;entryDy=0;exitX=0.5;exitY=1;exitDx=0;exitDy=0;" edge="1" parent="1" source="a13C5fLpqfONdjdxn8Ig-34" target="a13C5fLpqfONdjdxn8Ig-9">
          <mxGeometry width="50" height="50" relative="1" as="geometry">
            <mxPoint x="1290" y="910.1700000000001" as="sourcePoint" />
            <mxPoint x="1310" y="970.0033129882813" as="targetPoint" />
          </mxGeometry>
        </mxCell>
        <mxCell id="a13C5fLpqfONdjdxn8Ig-52" value="" style="endArrow=none;html=1;entryX=1;entryY=0.75;entryDx=0;entryDy=0;exitX=0;exitY=1;exitDx=0;exitDy=0;" edge="1" parent="1" source="a13C5fLpqfONdjdxn8Ig-32" target="a13C5fLpqfONdjdxn8Ig-9">
          <mxGeometry width="50" height="50" relative="1" as="geometry">
            <mxPoint x="1240.02" y="893.01" as="sourcePoint" />
            <mxPoint x="1310" y="970.0033129882813" as="targetPoint" />
          </mxGeometry>
        </mxCell>
        <mxCell id="a13C5fLpqfONdjdxn8Ig-53" value="" style="endArrow=none;html=1;exitX=0;exitY=0.5;exitDx=0;exitDy=0;entryX=1;entryY=0.75;entryDx=0;entryDy=0;" edge="1" parent="1" source="a13C5fLpqfONdjdxn8Ig-35" target="a13C5fLpqfONdjdxn8Ig-9">
          <mxGeometry width="50" height="50" relative="1" as="geometry">
            <mxPoint x="1221.2132034355964" y="934.3121356237309" as="sourcePoint" />
            <mxPoint x="1360" y="960.0033129882813" as="targetPoint" />
          </mxGeometry>
        </mxCell>
        <mxCell id="a13C5fLpqfONdjdxn8Ig-54" value="end time" style="ellipse;whiteSpace=wrap;html=1;fillColor=#f5f5f5;strokeColor=#666666;fontColor=#333333;" vertex="1" parent="1">
          <mxGeometry x="752.5" y="1250.0033129882813" width="60" height="40" as="geometry" />
        </mxCell>
        <mxCell id="a13C5fLpqfONdjdxn8Ig-55" value="" style="endArrow=none;html=1;entryX=1;entryY=0;entryDx=0;entryDy=0;" edge="1" parent="1" target="a13C5fLpqfONdjdxn8Ig-54">
          <mxGeometry width="50" height="50" relative="1" as="geometry">
            <mxPoint x="900" y="1230.0033129882813" as="sourcePoint" />
            <mxPoint x="846.2132034355964" y="1295.8611773645503" as="targetPoint" />
          </mxGeometry>
        </mxCell>
        <mxCell id="a13C5fLpqfONdjdxn8Ig-56" value="concerns" style="ellipse;whiteSpace=wrap;html=1;fillColor=#f5f5f5;strokeColor=#666666;fontColor=#333333;" vertex="1" parent="1">
          <mxGeometry x="250" y="1120" width="110" height="70" as="geometry" />
        </mxCell>
        <mxCell id="a13C5fLpqfONdjdxn8Ig-57" value="signs/symptoms" style="ellipse;whiteSpace=wrap;html=1;fillColor=#f5f5f5;strokeColor=#666666;fontColor=#333333;" vertex="1" parent="1">
          <mxGeometry x="310" y="1240" width="100" height="80" as="geometry" />
        </mxCell>
        <mxCell id="a13C5fLpqfONdjdxn8Ig-58" value="" style="endArrow=none;html=1;entryX=0;entryY=0.5;entryDx=0;entryDy=0;exitX=1;exitY=0.5;exitDx=0;exitDy=0;" edge="1" parent="1" source="a13C5fLpqfONdjdxn8Ig-56" target="a13C5fLpqfONdjdxn8Ig-44">
          <mxGeometry width="50" height="50" relative="1" as="geometry">
            <mxPoint x="440" y="1000.0033129882813" as="sourcePoint" />
            <mxPoint x="410" y="1200.0033129882813" as="targetPoint" />
          </mxGeometry>
        </mxCell>
        <mxCell id="a13C5fLpqfONdjdxn8Ig-59" value="" style="endArrow=none;html=1;entryX=0;entryY=0.5;entryDx=0;entryDy=0;exitX=1;exitY=0.5;exitDx=0;exitDy=0;" edge="1" parent="1" source="a13C5fLpqfONdjdxn8Ig-57" target="a13C5fLpqfONdjdxn8Ig-44">
          <mxGeometry width="50" height="50" relative="1" as="geometry">
            <mxPoint x="370" y="1160.0033129882813" as="sourcePoint" />
            <mxPoint x="410" y="1200.0033129882813" as="targetPoint" />
          </mxGeometry>
        </mxCell>
        <mxCell id="a13C5fLpqfONdjdxn8Ig-60" value="diagnosis" style="ellipse;whiteSpace=wrap;html=1;fillColor=#f5f5f5;strokeColor=#666666;fontColor=#333333;" vertex="1" parent="1">
          <mxGeometry x="930" y="930" width="100" height="60" as="geometry" />
        </mxCell>
        <mxCell id="a13C5fLpqfONdjdxn8Ig-61" value="maintenance" style="ellipse;whiteSpace=wrap;html=1;fillColor=#f5f5f5;strokeColor=#666666;fontColor=#333333;" vertex="1" parent="1">
          <mxGeometry x="1076.5" y="930" width="103.5" height="60" as="geometry" />
        </mxCell>
        <mxCell id="a13C5fLpqfONdjdxn8Ig-62" value="" style="endArrow=none;html=1;exitX=0.5;exitY=1;exitDx=0;exitDy=0;entryX=0.5;entryY=0;entryDx=0;entryDy=0;" edge="1" parent="1" source="a13C5fLpqfONdjdxn8Ig-60" target="a13C5fLpqfONdjdxn8Ig-42">
          <mxGeometry width="50" height="50" relative="1" as="geometry">
            <mxPoint x="1302.5" y="900.1700000000001" as="sourcePoint" />
            <mxPoint x="900.5" y="960.0033129882813" as="targetPoint" />
          </mxGeometry>
        </mxCell>
        <mxCell id="a13C5fLpqfONdjdxn8Ig-63" value="" style="endArrow=none;html=1;entryX=0.5;entryY=0;entryDx=0;entryDy=0;exitX=0.5;exitY=1;exitDx=0;exitDy=0;" edge="1" parent="1" source="a13C5fLpqfONdjdxn8Ig-61" target="a13C5fLpqfONdjdxn8Ig-42">
          <mxGeometry width="50" height="50" relative="1" as="geometry">
            <mxPoint x="1312.5" y="910.1700000000001" as="sourcePoint" />
            <mxPoint x="900" y="950.0033129882813" as="targetPoint" />
          </mxGeometry>
        </mxCell>
        <mxCell id="a13C5fLpqfONdjdxn8Ig-64" value="" style="endArrow=none;html=1;exitX=0.5;exitY=1;exitDx=0;exitDy=0;entryX=0.5;entryY=0;entryDx=0;entryDy=0;" edge="1" parent="1" source="a13C5fLpqfONdjdxn8Ig-45" target="a13C5fLpqfONdjdxn8Ig-65">
          <mxGeometry width="50" height="50" relative="1" as="geometry">
            <mxPoint x="1325" y="920.1700000000001" as="sourcePoint" />
            <mxPoint x="1370" y="1300.0033129882813" as="targetPoint" />
          </mxGeometry>
        </mxCell>
        <mxCell id="a13C5fLpqfONdjdxn8Ig-65" value="&lt;b&gt;&lt;u&gt;day&lt;/u&gt;&lt;/b&gt;" style="ellipse;whiteSpace=wrap;html=1;fillColor=#f5f5f5;strokeColor=#666666;fontColor=#333333;" vertex="1" parent="1">
          <mxGeometry x="1171.5" y="1270.17" width="60" height="40" as="geometry" />
        </mxCell>
        <mxCell id="a13C5fLpqfONdjdxn8Ig-66" value="&lt;b&gt;&lt;u&gt;breaks&lt;/u&gt;&lt;/b&gt;" style="ellipse;whiteSpace=wrap;html=1;fillColor=#f5f5f5;strokeColor=#666666;fontColor=#333333;" vertex="1" parent="1">
          <mxGeometry x="1227.5" y="1310.17" width="60" height="40" as="geometry" />
        </mxCell>
        <mxCell id="a13C5fLpqfONdjdxn8Ig-67" value="&lt;b&gt;&lt;u&gt;start time&lt;/u&gt;&lt;/b&gt;" style="ellipse;whiteSpace=wrap;html=1;fillColor=#f5f5f5;strokeColor=#666666;fontColor=#333333;" vertex="1" parent="1">
          <mxGeometry x="1400" y="1270.17" width="60" height="40" as="geometry" />
        </mxCell>
        <mxCell id="a13C5fLpqfONdjdxn8Ig-68" value="&lt;b&gt;&lt;u&gt;end time&lt;/u&gt;&lt;/b&gt;" style="ellipse;whiteSpace=wrap;html=1;fillColor=#f5f5f5;strokeColor=#666666;fontColor=#333333;" vertex="1" parent="1">
          <mxGeometry x="1370" y="1320.0000000000002" width="60" height="40" as="geometry" />
        </mxCell>
        <mxCell id="a13C5fLpqfONdjdxn8Ig-69" value="" style="endArrow=none;html=1;exitX=0.5;exitY=1;exitDx=0;exitDy=0;entryX=0.5;entryY=0;entryDx=0;entryDy=0;" edge="1" parent="1" source="a13C5fLpqfONdjdxn8Ig-45" target="a13C5fLpqfONdjdxn8Ig-66">
          <mxGeometry width="50" height="50" relative="1" as="geometry">
            <mxPoint x="1335" y="1240.0033129882813" as="sourcePoint" />
            <mxPoint x="1220" y="1300.17" as="targetPoint" />
          </mxGeometry>
        </mxCell>
        <mxCell id="a13C5fLpqfONdjdxn8Ig-70" value="" style="endArrow=none;html=1;exitX=0.5;exitY=1;exitDx=0;exitDy=0;entryX=0.5;entryY=0;entryDx=0;entryDy=0;" edge="1" parent="1" source="a13C5fLpqfONdjdxn8Ig-45" target="a13C5fLpqfONdjdxn8Ig-67">
          <mxGeometry width="50" height="50" relative="1" as="geometry">
            <mxPoint x="1345" y="1250.0033129882813" as="sourcePoint" />
            <mxPoint x="1230" y="1310.17" as="targetPoint" />
          </mxGeometry>
        </mxCell>
        <mxCell id="a13C5fLpqfONdjdxn8Ig-71" value="" style="endArrow=none;html=1;entryX=0;entryY=0;entryDx=0;entryDy=0;exitX=0.5;exitY=1;exitDx=0;exitDy=0;" edge="1" parent="1" source="a13C5fLpqfONdjdxn8Ig-45" target="a13C5fLpqfONdjdxn8Ig-68">
          <mxGeometry width="50" height="50" relative="1" as="geometry">
            <mxPoint x="1330" y="1240.0033129882813" as="sourcePoint" />
            <mxPoint x="1240" y="1320.17" as="targetPoint" />
          </mxGeometry>
        </mxCell>
        <mxCell id="a13C5fLpqfONdjdxn8Ig-72" value="" style="endArrow=none;html=1;exitX=0.5;exitY=1;exitDx=0;exitDy=0;entryX=0.5;entryY=0;entryDx=0;entryDy=0;" edge="1" parent="1" source="a13C5fLpqfONdjdxn8Ig-45" target="a13C5fLpqfONdjdxn8Ig-73">
          <mxGeometry width="50" height="50" relative="1" as="geometry">
            <mxPoint x="1320" y="1280.0033129882813" as="sourcePoint" />
            <mxPoint x="1325" y="1340.0033129882813" as="targetPoint" />
          </mxGeometry>
        </mxCell>
        <mxCell id="a13C5fLpqfONdjdxn8Ig-73" value="&lt;u&gt;&lt;b&gt;Id&lt;/b&gt;&lt;/u&gt;" style="ellipse;whiteSpace=wrap;html=1;fillColor=#f5f5f5;strokeColor=#666666;fontColor=#333333;" vertex="1" parent="1">
          <mxGeometry x="1300" y="1340.17" width="60" height="40" as="geometry" />
        </mxCell>
        <mxCell id="a13C5fLpqfONdjdxn8Ig-74" value="" style="endArrow=none;endFill=0;html=1;edgeStyle=orthogonalEdgeStyle;align=left;verticalAlign=top;" edge="1" parent="1">
          <mxGeometry x="-1" relative="1" as="geometry">
            <mxPoint x="669" y="775.0033129882813" as="sourcePoint" />
            <mxPoint x="829" y="775.0033129882813" as="targetPoint" />
          </mxGeometry>
        </mxCell>
        <mxCell id="a13C5fLpqfONdjdxn8Ig-75" value="" style="resizable=0;html=1;align=left;verticalAlign=bottom;labelBackgroundColor=#ffffff;fontSize=10;" connectable="0" vertex="1" parent="a13C5fLpqfONdjdxn8Ig-74">
          <mxGeometry x="-1" relative="1" as="geometry" />
        </mxCell>
        <mxCell id="a13C5fLpqfONdjdxn8Ig-76" value="&lt;b&gt;&lt;u&gt;id&lt;/u&gt;&lt;/b&gt;" style="ellipse;whiteSpace=wrap;html=1;fillColor=#f5f5f5;strokeColor=#666666;fontColor=#333333;" vertex="1" parent="1">
          <mxGeometry x="979" y="670" width="60" height="40" as="geometry" />
        </mxCell>
        <mxCell id="a13C5fLpqfONdjdxn8Ig-77" value="" style="endArrow=none;html=1;entryX=0.017;entryY=0.7;entryDx=0;entryDy=0;entryPerimeter=0;exitX=0.5;exitY=0;exitDx=0;exitDy=0;" edge="1" parent="1" source="a13C5fLpqfONdjdxn8Ig-4" target="a13C5fLpqfONdjdxn8Ig-76">
          <mxGeometry width="50" height="50" relative="1" as="geometry">
            <mxPoint x="900" y="730.0033129882813" as="sourcePoint" />
            <mxPoint x="830.2132034355964" y="684.3121356237311" as="targetPoint" />
          </mxGeometry>
        </mxCell>
        <mxCell id="a13C5fLpqfONdjdxn8Ig-78" value="" style="endArrow=open;endSize=12;html=1;exitX=0.5;exitY=1;exitDx=0;exitDy=0;entryX=0.5;entryY=0;entryDx=0;entryDy=0;" edge="1" parent="1" source="a13C5fLpqfONdjdxn8Ig-5" target="a13C5fLpqfONdjdxn8Ig-8">
          <mxGeometry width="160" relative="1" as="geometry">
            <mxPoint x="999" y="1430.0033129882813" as="sourcePoint" />
            <mxPoint x="1064" y="1430.0033129882813" as="targetPoint" />
          </mxGeometry>
        </mxCell>
        <mxCell id="a13C5fLpqfONdjdxn8Ig-79" value="" style="endArrow=none;html=1;entryX=0.5;entryY=1;entryDx=0;entryDy=0;exitX=0;exitY=0.5;exitDx=0;exitDy=0;" edge="1" parent="1" source="a13C5fLpqfONdjdxn8Ig-8" target="a13C5fLpqfONdjdxn8Ig-28">
          <mxGeometry width="50" height="50" relative="1" as="geometry">
            <mxPoint x="545.0000000000002" y="910.0033129882813" as="sourcePoint" />
            <mxPoint x="416.2132034355966" y="891.1454486120123" as="targetPoint" />
          </mxGeometry>
        </mxCell>
        <mxCell id="a13C5fLpqfONdjdxn8Ig-80" value="" style="endArrow=none;html=1;exitX=0.5;exitY=0;exitDx=0;exitDy=0;entryX=0;entryY=1;entryDx=0;entryDy=0;" edge="1" parent="1" source="a13C5fLpqfONdjdxn8Ig-4" target="a13C5fLpqfONdjdxn8Ig-81">
          <mxGeometry width="50" height="50" relative="1" as="geometry">
            <mxPoint x="890.4800000000002" y="720.0033129882813" as="sourcePoint" />
            <mxPoint x="970" y="640.0033129882813" as="targetPoint" />
          </mxGeometry>
        </mxCell>
        <mxCell id="a13C5fLpqfONdjdxn8Ig-81" value="date/time" style="ellipse;whiteSpace=wrap;html=1;fillColor=#f5f5f5;strokeColor=#666666;fontColor=#333333;" vertex="1" parent="1">
          <mxGeometry x="955" y="630" width="60" height="40" as="geometry" />
        </mxCell>
      </root>
    </mxGraphModel>
  </diagram>
</mxfile>
